<svg width="200" height="58" viewBox="0 0 200 58" fill="none" xmlns="http://www.w3.org/2000/svg">
<path d="M198.889 51.3368C198.889 54.4159 196.343 56.91 193.194 56.91H6.81378C3.66608 56.91 1.11108 54.4159 1.11108 51.3368V6.89291C1.11108 3.81532 3.66608 1.3125 6.81378 1.3125H193.192C196.343 1.3125 198.887 3.81532 198.887 6.89291L198.889 51.3368Z" fill="black"/>
<path d="M192.593 1.37959C196.022 1.37959 198.813 4.10056 198.813 7.44445V50.7778C198.813 54.1217 196.022 56.8426 192.593 56.8426H7.40741C3.97778 56.8426 1.18704 54.1217 1.18704 50.7778V7.44445C1.18704 4.10056 3.97778 1.37959 7.40741 1.37959H192.593ZM192.593 0.222228H7.40741C3.33519 0.222228 0 3.47403 0 7.44445V50.7778C0 54.7482 3.33519 58 7.40741 58H192.593C196.665 58 200 54.7482 200 50.7778V7.44445C200 3.47403 196.665 0.222228 192.593 0.222228Z" fill="#A6A6A6"/>
<path d="M44.634 28.7989C44.5911 24.1435 48.5437 21.8786 48.7244 21.7731C46.4859 18.591 43.0163 18.1563 41.797 18.1216C38.8829 17.8226 36.0563 19.8217 34.5718 19.8217C33.0577 19.8217 30.7718 18.1505 28.3081 18.1996C25.1377 18.2473 22.1718 20.0369 20.5451 22.816C17.1881 28.4826 19.6918 36.8098 22.9081 41.3901C24.517 43.6334 26.397 46.138 28.8577 46.0499C31.2651 45.9531 32.1644 44.5535 35.0696 44.5535C37.9481 44.5535 38.7925 46.0499 41.3022 45.9936C43.8859 45.9531 45.5125 43.7403 47.0651 41.4768C48.9244 38.9057 49.6711 36.3736 49.7007 36.2436C49.64 36.2234 44.6829 34.3788 44.634 28.7989Z" fill="white"/>
<path d="M39.8933 15.1085C41.1881 13.5297 42.074 11.3818 41.8281 9.20215C39.954 9.28304 37.6103 10.466 36.2607 12.0101C35.0666 13.3708 34 15.601 34.2755 17.6984C36.3807 17.8515 38.5422 16.6627 39.8933 15.1085Z" fill="white"/>
<path d="M79.474 45.728H76.1096L74.2666 40.0817H67.8607L66.1051 45.728H62.8296L69.1763 26.5054H73.0963L79.474 45.728ZM73.7111 37.7128L72.0444 32.6934C71.8681 32.1806 71.5377 30.973 71.0503 29.0721H70.9911C70.797 29.8897 70.4844 31.0973 70.0548 32.6934L68.4177 37.7128H73.7111Z" fill="white"/>
<path d="M95.7954 38.6273C95.7954 40.9847 95.142 42.848 93.8354 44.2159C92.665 45.4335 91.2116 46.0417 89.4768 46.0417C87.6042 46.0417 86.2591 45.3859 85.4398 44.0743H85.3805V51.376H82.222V36.4303C82.222 34.9483 82.182 33.4273 82.105 31.8673H84.8828L85.0591 34.0643H85.1183C86.1716 32.409 87.7702 31.5828 89.9154 31.5828C91.5924 31.5828 92.9924 32.2284 94.1124 33.5212C95.2354 34.8154 95.7954 36.517 95.7954 38.6273ZM92.5776 38.74C92.5776 37.3909 92.2665 36.2787 91.6413 35.4033C90.9583 34.4904 90.0413 34.034 88.8916 34.034C88.1124 34.034 87.4042 34.2882 86.7716 34.7894C86.1376 35.295 85.7228 35.9551 85.5287 36.7727C85.4309 37.154 85.382 37.466 85.382 37.7115V40.0227C85.382 41.0309 85.6991 41.8817 86.3331 42.5764C86.9672 43.2712 87.7909 43.6179 88.8042 43.6179C89.9939 43.6179 90.9198 43.1701 91.582 42.2774C92.2457 41.3833 92.5776 40.2047 92.5776 38.74Z" fill="white"/>
<path d="M112.147 38.6273C112.147 40.9847 111.493 42.848 110.185 44.2159C109.016 45.4335 107.563 46.0417 105.828 46.0417C103.956 46.0417 102.61 45.3859 101.793 44.0743H101.733V51.376H98.5749V36.4303C98.5749 34.9483 98.5349 33.4273 98.4579 31.8673H101.236L101.412 34.0643H101.471C102.523 32.409 104.122 31.5828 106.268 31.5828C107.944 31.5828 109.344 32.2284 110.467 33.5212C111.585 34.8154 112.147 36.517 112.147 38.6273ZM108.929 38.74C108.929 37.3909 108.616 36.2787 107.991 35.4033C107.308 34.4904 106.394 34.034 105.243 34.034C104.462 34.034 103.756 34.2882 103.122 34.7894C102.488 35.295 102.074 35.9551 101.88 36.7727C101.784 37.154 101.733 37.466 101.733 37.7115V40.0227C101.733 41.0309 102.05 41.8817 102.682 42.5764C103.316 43.2698 104.139 43.6179 105.156 43.6179C106.345 43.6179 107.271 43.1701 107.933 42.2774C108.597 41.3833 108.929 40.2047 108.929 38.74Z" fill="white"/>
<path d="M130.428 40.3375C130.428 41.9727 129.846 43.303 128.677 44.33C127.392 45.4523 125.604 46.0128 123.307 46.0128C121.185 46.0128 119.484 45.6141 118.197 44.8153L118.929 42.2485C120.315 43.0661 121.837 43.4763 123.495 43.4763C124.684 43.4763 125.61 43.2134 126.275 42.6905C126.938 42.1677 127.268 41.4657 127.268 40.5903C127.268 39.8103 126.995 39.1531 126.449 38.6201C125.905 38.0871 124.997 37.5917 123.729 37.1338C120.277 35.8785 118.552 34.0398 118.552 31.6218C118.552 30.0415 119.157 28.7459 120.367 27.7377C121.573 26.728 123.182 26.2239 125.194 26.2239C126.988 26.2239 128.478 26.5287 129.668 27.1368L128.878 29.6472C127.767 29.0579 126.511 28.7632 125.105 28.7632C123.994 28.7632 123.126 29.0304 122.504 29.562C121.978 30.0372 121.714 30.6164 121.714 31.3025C121.714 32.0623 122.015 32.6907 122.619 33.1847C123.145 33.6411 124.101 34.1351 125.487 34.6681C127.184 35.334 128.429 36.1125 129.231 37.0052C130.029 37.895 130.428 39.0087 130.428 40.3375Z" fill="white"/>
<path d="M140.871 34.1781H137.39V40.9078C137.39 42.6194 138.003 43.4746 139.233 43.4746C139.797 43.4746 140.265 43.4269 140.636 43.3316L140.723 45.6701C140.101 45.8969 139.282 46.011 138.267 46.011C137.019 46.011 136.044 45.6398 135.341 44.8988C134.64 44.1563 134.287 42.9112 134.287 41.162V34.1752H132.213V31.8641H134.287V29.3262L137.39 28.4133V31.8641H140.871V34.1781Z" fill="white"/>
<path d="M156.579 38.6834C156.579 40.814 155.954 42.5632 154.706 43.9311C153.398 45.3394 151.662 46.0414 149.498 46.0414C147.412 46.0414 145.751 45.3669 144.512 44.0178C143.274 42.6686 142.655 40.9656 142.655 38.9131C142.655 36.7652 143.292 35.0059 144.57 33.638C145.846 32.2687 147.567 31.584 149.732 31.584C151.818 31.584 153.496 32.2585 154.763 33.6091C155.975 34.9192 156.579 36.6107 156.579 38.6834ZM153.302 38.7831C153.302 37.5048 153.022 36.4084 152.455 35.4941C151.792 34.3877 150.846 33.8359 149.619 33.8359C148.349 33.8359 147.385 34.3891 146.723 35.4941C146.155 36.4099 145.875 37.5235 145.875 38.8409C145.875 40.1192 146.155 41.2155 146.723 42.1284C147.406 43.2349 148.36 43.7866 149.591 43.7866C150.797 43.7866 151.743 43.2233 152.426 42.0995C153.009 41.1679 153.302 40.06 153.302 38.7831Z" fill="white"/>
<path d="M166.846 34.5757C166.533 34.5193 166.2 34.4904 165.85 34.4904C164.739 34.4904 163.88 34.8992 163.276 35.7182C162.75 36.4404 162.486 37.3533 162.486 38.4554V45.7282H159.329L159.359 36.2324C159.359 34.6349 159.319 33.1803 159.24 31.8688H161.991L162.107 34.5208H162.194C162.527 33.6093 163.053 32.8755 163.773 32.3252C164.477 31.8298 165.237 31.5828 166.056 31.5828C166.348 31.5828 166.612 31.603 166.846 31.6391V34.5757Z" fill="white"/>
<path d="M180.972 38.1419C180.972 38.6936 180.935 39.1587 180.856 39.5386H171.381C171.418 40.908 171.875 41.9552 172.755 42.6774C173.554 43.3231 174.587 43.6466 175.855 43.6466C177.258 43.6466 178.538 43.4285 179.689 42.9909L180.184 45.1286C178.838 45.7006 177.25 45.9852 175.418 45.9852C173.213 45.9852 171.483 45.3525 170.224 44.0886C168.967 42.8247 168.338 41.1275 168.338 38.9984C168.338 36.9083 168.923 35.1678 170.095 33.7796C171.321 32.2976 172.979 31.5566 175.065 31.5566C177.114 31.5566 178.665 32.2976 179.718 33.7796C180.552 34.9569 180.972 36.4129 180.972 38.1419ZM177.96 37.3431C177.981 36.4302 177.775 35.6415 177.347 34.9756C176.8 34.1191 175.96 33.6915 174.829 33.6915C173.797 33.6915 172.957 34.109 172.315 34.9468C171.79 35.6126 171.477 36.4114 171.381 37.3416H177.96V37.3431Z" fill="white"/>
<path d="M72.6667 14.6794C72.6667 16.3795 72.1437 17.6593 71.0993 18.5187C70.1319 19.3117 68.7571 19.7089 66.9763 19.7089C66.0934 19.7089 65.3378 19.6714 64.7052 19.5963V10.307C65.5304 10.177 66.4193 10.1106 67.3793 10.1106C69.0756 10.1106 70.3541 10.4703 71.2163 11.1896C72.1822 12.0028 72.6667 13.1656 72.6667 14.6794ZM71.0297 14.7213C71.0297 13.6192 70.7304 12.7742 70.1319 12.1848C69.5334 11.5969 68.6593 11.3023 67.5082 11.3023C67.0193 11.3023 66.603 11.334 66.2578 11.4005V18.4624C66.4489 18.4913 66.7985 18.5043 67.3067 18.5043C68.4948 18.5043 69.4119 18.1822 70.0578 17.5379C70.7037 16.8937 71.0297 15.9548 71.0297 14.7213Z" fill="white"/>
<path d="M81.3466 16.1641C81.3466 17.2114 81.0399 18.0694 80.4266 18.7425C79.7836 19.4344 78.9318 19.7796 77.8681 19.7796C76.8429 19.7796 76.0266 19.4488 75.4177 18.7844C74.8103 18.1214 74.5066 17.285 74.5066 16.2768C74.5066 15.2224 74.8192 14.3571 75.4473 13.6855C76.0755 13.0138 76.9199 12.6772 77.9836 12.6772C79.0088 12.6772 79.8325 13.008 80.4562 13.671C81.0488 14.3152 81.3466 15.1472 81.3466 16.1641ZM79.7362 16.2132C79.7362 15.5849 79.597 15.0461 79.3199 14.5969C78.994 14.0538 78.5303 13.7822 77.9273 13.7822C77.3036 13.7822 76.8296 14.0538 76.5036 14.5969C76.2251 15.0461 76.0873 15.5936 76.0873 16.2407C76.0873 16.869 76.2266 17.4078 76.5036 17.857C76.8399 18.4001 77.3081 18.6717 77.9125 18.6717C78.5051 18.6717 78.9703 18.3958 79.3051 17.8426C79.5925 17.3847 79.7362 16.8416 79.7362 16.2132Z" fill="white"/>
<path d="M92.9853 12.8162L90.8001 19.6253H89.3779L88.4727 16.6685C88.2431 15.9304 88.0564 15.1966 87.9113 14.4686H87.8831C87.7483 15.2168 87.5616 15.9492 87.3216 16.6685L86.3601 19.6253H84.9216L82.8668 12.8162H84.4624L85.252 16.0532C85.4431 16.8187 85.6002 17.5482 85.7261 18.2386H85.7542C85.8698 17.6695 86.0609 16.9444 86.3305 16.0676L87.3216 12.8176H88.5868L89.5364 15.9983C89.7661 16.7739 89.9527 17.5207 90.0964 18.2401H90.1394C90.2446 17.5395 90.4031 16.7927 90.6135 15.9983L91.4609 12.8176H92.9853V12.8162Z" fill="white"/>
<path d="M101.034 19.625H99.4816V15.725C99.4816 14.5232 99.0134 13.9223 98.0742 13.9223C97.6134 13.9223 97.2416 14.087 96.9527 14.4177C96.6668 14.7485 96.5216 15.1385 96.5216 15.5849V19.6235H94.969V14.7615C94.969 14.1635 94.9498 13.515 94.9127 12.813H96.2772L96.3498 13.8775H96.3927C96.5735 13.5467 96.8431 13.2737 97.1972 13.0556C97.6179 12.8014 98.089 12.6729 98.6046 12.6729C99.2564 12.6729 99.7986 12.878 100.23 13.2896C100.766 13.7937 101.034 14.5463 101.034 15.5459V19.625Z" fill="white"/>
<path d="M105.316 19.6251H103.764V9.69165H105.316V19.6251Z" fill="white"/>
<path d="M114.456 16.1641C114.456 17.2114 114.15 18.0694 113.536 18.7425C112.893 19.4344 112.04 19.7796 110.978 19.7796C109.951 19.7796 109.135 19.4488 108.528 18.7844C107.92 18.1214 107.616 17.285 107.616 16.2768C107.616 15.2224 107.929 14.3571 108.557 13.6855C109.185 13.0138 110.03 12.6772 111.092 12.6772C112.119 12.6772 112.941 13.008 113.566 13.671C114.159 14.3152 114.456 15.1472 114.456 16.1641ZM112.845 16.2132C112.845 15.5849 112.705 15.0461 112.428 14.5969C112.104 14.0538 111.639 13.7822 111.037 13.7822C110.412 13.7822 109.938 14.0538 109.613 14.5969C109.335 15.0461 109.197 15.5936 109.197 16.2407C109.197 16.869 109.336 17.4078 109.613 17.857C109.95 18.4001 110.418 18.6717 111.022 18.6717C111.615 18.6717 112.079 18.3958 112.413 17.8426C112.702 17.3847 112.845 16.8416 112.845 16.2132Z" fill="white"/>
<path d="M121.97 19.625H120.576L120.461 18.8407H120.418C119.941 19.4661 119.261 19.7796 118.378 19.7796C117.719 19.7796 117.185 19.573 116.784 19.1628C116.419 18.7901 116.237 18.3265 116.237 17.7761C116.237 16.9441 116.593 16.31 117.308 15.8709C118.022 15.4318 119.027 15.2166 120.32 15.2267V15.0996C120.32 14.2026 119.837 13.7548 118.87 13.7548C118.181 13.7548 117.573 13.9238 117.049 14.2589L116.733 13.2651C117.382 12.8737 118.184 12.6772 119.129 12.6772C120.954 12.6772 121.87 13.6161 121.87 15.4939V18.0015C121.87 18.6818 121.904 19.2235 121.97 19.625ZM120.359 17.285V16.2349C118.646 16.206 117.79 16.6639 117.79 17.6071C117.79 17.9625 117.887 18.2282 118.087 18.4059C118.287 18.5836 118.542 18.6717 118.846 18.6717C119.187 18.6717 119.505 18.5662 119.796 18.3568C120.087 18.1459 120.267 17.8787 120.333 17.5508C120.35 17.4771 120.359 17.3876 120.359 17.285Z" fill="white"/>
<path d="M130.793 19.6251H129.415L129.342 18.5316H129.299C128.859 19.3636 128.11 19.7796 127.056 19.7796C126.215 19.7796 125.514 19.4575 124.959 18.8133C124.403 18.1691 124.126 17.3328 124.126 16.3058C124.126 15.2037 124.427 14.311 125.031 13.6292C125.616 12.9936 126.333 12.6759 127.187 12.6759C128.124 12.6759 128.781 12.9835 129.154 13.6003H129.184V9.69165H130.738V17.7907C130.738 18.4537 130.756 19.0646 130.793 19.6251ZM129.184 16.7535V15.6182C129.184 15.4218 129.169 15.2629 129.141 15.1415C129.053 14.7775 128.865 14.4713 128.579 14.2243C128.29 13.9773 127.942 13.8531 127.541 13.8531C126.962 13.8531 126.508 14.077 126.175 14.5262C125.844 14.9754 125.677 15.5489 125.677 16.2494C125.677 16.9225 125.836 17.4685 126.154 17.8889C126.49 18.3366 126.944 18.5605 127.511 18.5605C128.021 18.5605 128.428 18.3742 128.738 18.0001C129.037 17.6549 129.184 17.2389 129.184 16.7535Z" fill="white"/>
<path d="M144.071 16.1641C144.071 17.2114 143.765 18.0694 143.151 18.7425C142.508 19.4344 141.658 19.7796 140.593 19.7796C139.569 19.7796 138.753 19.4488 138.142 18.7844C137.535 18.1214 137.231 17.285 137.231 16.2768C137.231 15.2224 137.544 14.3571 138.172 13.6855C138.8 13.0138 139.645 12.6772 140.71 12.6772C141.733 12.6772 142.559 13.008 143.181 13.671C143.773 14.3152 144.071 15.1472 144.071 16.1641ZM142.462 16.2132C142.462 15.5849 142.323 15.0461 142.046 14.5969C141.719 14.0538 141.256 13.7822 140.652 13.7822C140.03 13.7822 139.556 14.0538 139.228 14.5969C138.95 15.0461 138.812 15.5936 138.812 16.2407C138.812 16.869 138.951 17.4078 139.228 17.857C139.565 18.4001 140.033 18.6717 140.637 18.6717C141.23 18.6717 141.696 18.3958 142.031 17.8426C142.317 17.3847 142.462 16.8416 142.462 16.2132Z" fill="white"/>
<path d="M152.419 19.625H150.868V15.725C150.868 14.5232 150.4 13.9223 149.459 13.9223C148.998 13.9223 148.627 14.087 148.339 14.4177C148.052 14.7485 147.908 15.1385 147.908 15.5849V19.6235H146.354V14.7615C146.354 14.1635 146.336 13.515 146.299 12.813H147.662L147.735 13.8775H147.778C147.96 13.5467 148.23 13.2737 148.582 13.0556C149.004 12.8014 149.474 12.6729 149.991 12.6729C150.641 12.6729 151.184 12.878 151.615 13.2896C152.153 13.7937 152.419 14.5463 152.419 15.5459V19.625Z" fill="white"/>
<path d="M162.868 13.9498H161.159V17.2576C161.159 18.0982 161.462 18.5186 162.064 18.5186C162.342 18.5186 162.574 18.4955 162.756 18.4478L162.796 19.5961C162.489 19.7088 162.086 19.7651 161.59 19.7651C160.976 19.7651 160.499 19.5831 160.154 19.2191C159.808 18.8551 159.636 18.2427 159.636 17.3832V13.9498H158.615V12.8159H159.636V11.5679L161.157 11.1201V12.8145H162.867V13.9498H162.868Z" fill="white"/>
<path d="M171.088 19.6251H169.533V15.754C169.533 14.5334 169.065 13.9224 168.128 13.9224C167.408 13.9224 166.916 14.2763 166.646 14.9841C166.6 15.1329 166.573 15.3149 166.573 15.5287V19.6237H165.022V9.69165H166.573V13.7953H166.603C167.092 13.0485 167.793 12.6759 168.701 12.6759C169.344 12.6759 169.876 12.881 170.298 13.2926C170.824 13.8054 171.088 14.5681 171.088 15.5763V19.6251Z" fill="white"/>
<path d="M179.566 15.8984C179.566 16.17 179.545 16.3982 179.508 16.5845H174.852C174.873 17.2576 175.095 17.7704 175.526 18.1258C175.92 18.4435 176.428 18.6024 177.05 18.6024C177.739 18.6024 178.367 18.4955 178.933 18.2803L179.176 19.3319C178.514 19.6121 177.735 19.7522 176.833 19.7522C175.751 19.7522 174.899 19.4416 174.283 18.8205C173.664 18.1994 173.357 17.366 173.357 16.3202C173.357 15.2932 173.643 14.4381 174.219 13.7563C174.821 13.0283 175.634 12.6643 176.661 12.6643C177.665 12.6643 178.428 13.0283 178.944 13.7563C179.36 14.3341 179.566 15.0491 179.566 15.8984ZM178.084 15.507C178.096 15.0577 177.994 14.6706 177.784 14.3442C177.514 13.9239 177.104 13.713 176.548 13.713C176.041 13.713 175.628 13.9181 175.313 14.3298C175.055 14.6576 174.902 15.0491 174.852 15.507H178.084Z" fill="white"/>
</svg>
