<svg width="200" height="59" viewBox="0 0 200 59" fill="none" xmlns="http://www.w3.org/2000/svg">
<path d="M192.593 59H7.40741C3.33519 59 0 55.6794 0 51.625V7.375C0 3.32059 3.33519 7.56029e-07 7.40741 7.56029e-07H192.593C196.665 7.56029e-07 200 3.32059 200 7.375V51.625C200 55.6794 196.665 59 192.593 59Z" fill="black"/>
<path d="M192.593 1.18184C196.022 1.18184 198.813 3.96037 198.813 7.375V51.625C198.813 55.0396 196.022 57.8182 192.593 57.8182H7.40741C3.97778 57.8182 1.18704 55.0396 1.18704 51.625V7.375C1.18704 3.96037 3.97778 1.18184 7.40741 1.18184H192.593ZM192.593 7.56029e-07H7.40741C3.33519 7.56029e-07 0 3.32059 0 7.375V51.625C0 55.6794 3.33519 59 7.40741 59H192.593C196.665 59 200 55.6794 200 51.625V7.375C200 3.32059 196.665 7.56029e-07 192.593 7.56029e-07Z" fill="#A6A6A6"/>
<path d="M70.2482 15.1096C70.2482 16.3413 69.8779 17.3277 69.1482 18.0633C68.3094 18.9354 67.2168 19.3742 65.8779 19.3742C64.5982 19.3742 63.5056 18.928 62.6094 18.0486C61.7112 17.1562 61.2631 16.061 61.2631 14.7501C61.2631 13.4392 61.7112 12.344 62.6094 11.459C63.5056 10.5722 64.5982 10.126 65.8779 10.126C66.5149 10.126 67.1223 10.2569 67.7019 10.5003C68.2797 10.7455 68.7501 11.0774 69.0908 11.4867L68.3168 12.2647C67.7223 11.5659 66.9131 11.2212 65.8779 11.2212C64.9445 11.2212 64.1353 11.5457 63.4482 12.2002C62.7686 12.8566 62.4279 13.7065 62.4279 14.7501C62.4279 15.7937 62.7686 16.651 63.4482 17.3074C64.1353 17.9545 64.9445 18.2864 65.8779 18.2864C66.8686 18.2864 67.702 17.9545 68.3594 17.3C68.7927 16.8667 69.039 16.2694 69.1038 15.506H65.8779V14.4404H70.1816C70.2334 14.6708 70.2482 14.8939 70.2482 15.1096Z" fill="white" stroke="white" stroke-width="0.16" stroke-miterlimit="10"/>
<path d="M77.076 11.4146H73.0334V14.2171H76.6778V15.2828H73.0334V18.0853H77.076V19.1712H71.8889V10.3286H77.076V11.4146Z" fill="white" stroke="white" stroke-width="0.16" stroke-miterlimit="10"/>
<path d="M81.8945 19.1712H80.75V11.4146H78.2704V10.3286H84.3759V11.4146H81.8945V19.1712Z" fill="white" stroke="white" stroke-width="0.16" stroke-miterlimit="10"/>
<path d="M88.7946 19.1712V10.3286H89.9372V19.1712H88.7946Z" fill="white" stroke="white" stroke-width="0.16" stroke-miterlimit="10"/>
<path d="M95.0017 19.1712H93.8666V11.4146H91.3777V10.3286H97.4906V11.4146H95.0017V19.1712Z" fill="white" stroke="white" stroke-width="0.16" stroke-miterlimit="10"/>
<path d="M109.05 18.0338C108.174 18.928 107.089 19.3742 105.794 19.3742C104.493 19.3742 103.407 18.928 102.531 18.0338C101.657 17.1414 101.222 16.0463 101.222 14.7501C101.222 13.4539 101.657 12.3588 102.531 11.4664C103.407 10.5722 104.493 10.126 105.794 10.126C107.081 10.126 108.167 10.5722 109.043 11.4738C109.924 12.3735 110.359 13.4613 110.359 14.7501C110.359 16.0463 109.924 17.1414 109.05 18.0338ZM103.378 17.2926C104.037 17.9545 104.839 18.2864 105.794 18.2864C106.743 18.2864 107.552 17.9545 108.204 17.2926C108.861 16.6307 109.194 15.7808 109.194 14.7501C109.194 13.7194 108.861 12.8695 108.204 12.2076C107.552 11.5457 106.743 11.2138 105.794 11.2138C104.839 11.2138 104.037 11.5457 103.378 12.2076C102.72 12.8695 102.387 13.7194 102.387 14.7501C102.387 15.7808 102.72 16.6307 103.378 17.2926Z" fill="white" stroke="white" stroke-width="0.16" stroke-miterlimit="10"/>
<path d="M111.965 19.1712V10.3286H113.354L117.672 17.2058H117.722L117.672 15.5059V10.3286H118.815V19.1712H117.622L113.1 11.9548H113.05L113.1 13.6621V19.1712H111.965Z" fill="white" stroke="white" stroke-width="0.16" stroke-miterlimit="10"/>
<path d="M100.941 32.085C97.4611 32.085 94.6186 34.7216 94.6186 38.3593C94.6186 41.9675 97.4611 44.6317 100.941 44.6317C104.428 44.6317 107.27 41.9675 107.27 38.3593C107.27 34.7216 104.428 32.085 100.941 32.085ZM100.941 42.1611C99.0315 42.1611 97.3889 40.5921 97.3889 38.3593C97.3889 36.097 99.0315 34.5557 100.941 34.5557C102.85 34.5557 104.5 36.097 104.5 38.3593C104.5 40.5921 102.85 42.1611 100.941 42.1611ZM87.1463 32.085C83.6593 32.085 80.8241 34.7216 80.8241 38.3593C80.8241 41.9675 83.6593 44.6317 87.1463 44.6317C90.6315 44.6317 93.4686 41.9675 93.4686 38.3593C93.4686 34.7216 90.6315 32.085 87.1463 32.085ZM87.1463 42.1611C85.2352 42.1611 83.5871 40.5921 83.5871 38.3593C83.5871 36.097 85.2352 34.5557 87.1463 34.5557C89.0556 34.5557 90.6982 36.097 90.6982 38.3593C90.6982 40.5921 89.0556 42.1611 87.1463 42.1611ZM70.7315 34.0081V36.6741H77.126C76.9389 38.1639 76.4389 39.2591 75.6723 40.0224C74.7389 40.9443 73.2852 41.9675 70.7315 41.9675C66.7963 41.9675 63.7149 38.8055 63.7149 34.8875C63.7149 30.9696 66.7963 27.8075 70.7315 27.8075C72.8593 27.8075 74.4075 28.6354 75.55 29.7084L77.4371 27.8297C75.8389 26.3104 73.713 25.1433 70.7315 25.1433C65.3352 25.1433 60.8 29.5148 60.8 34.8875C60.8 40.2602 65.3352 44.6317 70.7315 44.6317C73.6482 44.6317 75.8389 43.6804 77.5612 41.8956C79.326 40.1385 79.876 37.6679 79.876 35.673C79.876 35.0535 79.8241 34.4838 79.7315 34.0081H70.7315ZM137.854 36.0749C137.333 34.6718 135.728 32.085 132.457 32.085C129.217 32.085 126.519 34.6276 126.519 38.3593C126.519 41.8735 129.189 44.6317 132.769 44.6317C135.663 44.6317 137.333 42.8747 138.02 41.8514L135.872 40.4262C135.156 41.4697 134.18 42.1611 132.769 42.1611C131.367 42.1611 130.361 41.5213 129.717 40.2602L138.144 36.7884L137.854 36.0749ZM129.261 38.1639C129.189 35.7449 131.148 34.5059 132.552 34.5059C133.652 34.5059 134.585 35.0535 134.896 35.8371L129.261 38.1639ZM122.411 44.2501H125.182V25.8126H122.411V44.2501ZM117.874 33.4826H117.782C117.159 32.7488 115.972 32.085 114.469 32.085C111.313 32.085 108.428 34.8433 108.428 38.3796C108.428 41.8956 111.313 44.6317 114.469 44.6317C115.972 44.6317 117.159 43.9625 117.782 43.2065H117.874V44.1063C117.874 46.505 116.587 47.7938 114.511 47.7938C112.819 47.7938 111.769 46.5769 111.335 45.5536L108.926 46.5548C109.62 48.2178 111.459 50.2644 114.511 50.2644C117.759 50.2644 120.5 48.3617 120.5 43.732V32.4667H117.874V33.4826ZM114.706 42.1611C112.796 42.1611 111.198 40.57 111.198 38.3796C111.198 36.1689 112.796 34.5557 114.706 34.5557C116.587 34.5557 118.07 36.1689 118.07 38.3796C118.07 40.57 116.587 42.1611 114.706 42.1611ZM150.824 25.8126H144.198V44.2501H146.961V37.2641H150.824C153.893 37.2641 156.902 35.0535 156.902 31.5374C156.902 28.0233 153.885 25.8126 150.824 25.8126ZM150.896 34.6995H146.961V28.3773H150.896C152.959 28.3773 154.137 30.0827 154.137 31.5374C154.137 32.9645 152.959 34.6995 150.896 34.6995ZM167.976 32.05C165.98 32.05 163.904 32.9276 163.05 34.8728L165.502 35.8961C166.03 34.8728 167 34.5409 168.026 34.5409C169.459 34.5409 170.913 35.3983 170.935 36.912V37.1056C170.435 36.8179 169.365 36.392 168.048 36.392C165.407 36.392 162.717 37.8394 162.717 40.5405C162.717 43.0111 164.88 44.6022 167.311 44.6022C169.17 44.6022 170.196 43.767 170.841 42.7954H170.935V44.2206H173.604V37.148C173.604 33.879 171.152 32.05 167.976 32.05ZM167.643 42.1538C166.739 42.1538 165.48 41.7076 165.48 40.5921C165.48 39.165 167.05 38.6174 168.409 38.6174C169.626 38.6174 170.196 38.8848 170.935 39.2369C170.719 40.9443 169.243 42.1538 167.643 42.1538ZM183.326 32.4538L180.15 40.4464H180.056L176.772 32.4538H173.793L178.726 43.6232L175.911 49.8385H178.798L186.4 32.4538H183.326ZM158.42 44.2501H161.191V25.8126H158.42V44.2501Z" fill="white"/>
<path d="M15.4593 11.1197C15.0241 11.5732 14.7722 12.2794 14.7722 13.1939V45.8135C14.7722 46.728 15.0241 47.4342 15.4593 47.8877L15.5667 47.9873L33.9259 29.7157V29.2843L15.5667 11.0127L15.4593 11.1197Z" fill="url(#paint0_linear_14_103)"/>
<path d="M40.0389 35.8093L33.9259 29.7157V29.2843L40.0463 23.1907L40.1833 23.27L47.4315 27.376C49.5 28.5413 49.5 30.4588 47.4315 31.6314L40.1833 35.73L40.0389 35.8093Z" fill="url(#paint1_linear_14_103)"/>
<path d="M40.1833 35.7301L33.9259 29.5001L15.4592 47.8878C16.1463 48.6069 17.2666 48.6936 18.5407 47.9745L40.1833 35.7301Z" fill="url(#paint2_linear_14_103)"/>
<path d="M40.1833 23.27L18.5407 11.0256C17.2666 10.3139 16.1463 10.4006 15.4592 11.1197L33.9259 29.5L40.1833 23.27Z" fill="url(#paint3_linear_14_103)"/>
<defs>
<linearGradient id="paint0_linear_14_103" x1="32.2958" y1="46.1532" x2="7.54203" y2="21.2907" gradientUnits="userSpaceOnUse">
<stop stop-color="#00A0FF"/>
<stop offset="0.0066" stop-color="#00A1FF"/>
<stop offset="0.2601" stop-color="#00BEFF"/>
<stop offset="0.5122" stop-color="#00D2FF"/>
<stop offset="0.7604" stop-color="#00DFFF"/>
<stop offset="1" stop-color="#00E3FF"/>
</linearGradient>
<linearGradient id="paint1_linear_14_103" x1="50.125" y1="29.4979" x2="14.2778" y2="29.4979" gradientUnits="userSpaceOnUse">
<stop stop-color="#FFE000"/>
<stop offset="0.4087" stop-color="#FFBD00"/>
<stop offset="0.7754" stop-color="#FFA500"/>
<stop offset="1" stop-color="#FF9C00"/>
</linearGradient>
<linearGradient id="paint2_linear_14_103" x1="36.7807" y1="26.1134" x2="3.21254" y2="-7.60231" gradientUnits="userSpaceOnUse">
<stop stop-color="#FF3A44"/>
<stop offset="1" stop-color="#C31162"/>
</linearGradient>
<linearGradient id="paint3_linear_14_103" x1="10.8108" y1="58.7401" x2="25.8005" y2="43.6847" gradientUnits="userSpaceOnUse">
<stop stop-color="#32A071"/>
<stop offset="0.0685" stop-color="#2DA771"/>
<stop offset="0.4762" stop-color="#15CF74"/>
<stop offset="0.8009" stop-color="#06E775"/>
<stop offset="1" stop-color="#00F076"/>
</linearGradient>
</defs>
</svg>
